<svg id="visual" viewBox="0 0 4000 2800" width="4000" height="2800" xmlns="http://www.w3.org/2000/svg" xmlns:xlink="http://www.w3.org/1999/xlink" version="1.1"><rect x="0" y="0" width="4000" height="2800" fill="#040321"></rect><defs><linearGradient id="grad1_0" x1="30%" y1="0%" x2="100%" y2="100%"><stop offset="21.42857142857143%" stop-color="#0e3380" stop-opacity="1"></stop><stop offset="78.57142857142858%" stop-color="#0e3380" stop-opacity="1"></stop></linearGradient></defs><defs><linearGradient id="grad1_1" x1="30%" y1="0%" x2="100%" y2="100%"><stop offset="21.42857142857143%" stop-color="#0e3380" stop-opacity="1"></stop><stop offset="78.57142857142858%" stop-color="#0b1e4e" stop-opacity="1"></stop></linearGradient></defs><defs><linearGradient id="grad1_2" x1="30%" y1="0%" x2="100%" y2="100%"><stop offset="21.42857142857143%" stop-color="#040321" stop-opacity="1"></stop><stop offset="78.57142857142858%" stop-color="#0b1e4e" stop-opacity="1"></stop></linearGradient></defs><defs><linearGradient id="grad2_0" x1="0%" y1="0%" x2="70%" y2="100%"><stop offset="21.42857142857143%" stop-color="#0e3380" stop-opacity="1"></stop><stop offset="78.57142857142858%" stop-color="#0e3380" stop-opacity="1"></stop></linearGradient></defs><defs><linearGradient id="grad2_1" x1="0%" y1="0%" x2="70%" y2="100%"><stop offset="21.42857142857143%" stop-color="#0b1e4e" stop-opacity="1"></stop><stop offset="78.57142857142858%" stop-color="#0e3380" stop-opacity="1"></stop></linearGradient></defs><defs><linearGradient id="grad2_2" x1="0%" y1="0%" x2="70%" y2="100%"><stop offset="21.42857142857143%" stop-color="#0b1e4e" stop-opacity="1"></stop><stop offset="78.57142857142858%" stop-color="#040321" stop-opacity="1"></stop></linearGradient></defs><g transform="translate(4000, 0)"><path d="M0 2197.2C-196.6 2073.7 -393.2 1950.3 -617.7 1901.2C-842.2 1852 -1094.7 1877.1 -1291.5 1777.6C-1488.3 1678 -1629.5 1453.7 -1699.7 1234.9C-1770 1016.2 -1769.2 802.9 -1840.3 597.9C-1911.4 393 -2054.3 196.5 -2197.2 0L0 0Z" fill="#081436"></path><path d="M0 1464.8C-131.1 1382.5 -262.1 1300.2 -411.8 1267.4C-561.5 1234.7 -729.8 1251.4 -861 1185C-992.2 1118.7 -1086.3 969.1 -1133.2 823.3C-1180 677.4 -1179.5 535.2 -1226.9 398.6C-1274.2 262 -1369.5 131 -1464.8 0L0 0Z" fill="#0d2866"></path><path d="M0 732.4C-65.5 691.2 -131.1 650.1 -205.9 633.7C-280.7 617.3 -364.9 625.7 -430.5 592.5C-496.1 559.3 -543.2 484.6 -566.6 411.6C-590 338.7 -589.7 267.6 -613.4 199.3C-637.1 131 -684.8 65.5 -732.4 0L0 0Z" fill="#0e3380"></path></g><g transform="translate(0, 2800)"><path d="M0 -2197.2C182.7 -2029.1 365.5 -1861 589.9 -1815.6C814.3 -1770.2 1080.4 -1847.4 1291.5 -1777.6C1502.5 -1707.7 1658.5 -1490.6 1755.6 -1275.5C1852.6 -1060.4 1890.6 -847.3 1954.4 -635C2018.2 -422.8 2107.7 -211.4 2197.2 0L0 0Z" fill="#081436"></path><path d="M0 -1464.8C121.8 -1352.7 243.7 -1240.6 393.3 -1210.4C542.9 -1180.1 720.3 -1231.6 861 -1185C1001.7 -1138.4 1105.7 -993.7 1170.4 -850.3C1235.1 -706.9 1260.4 -564.9 1302.9 -423.4C1345.5 -281.9 1405.1 -140.9 1464.8 0L0 0Z" fill="#0d2866"></path><path d="M0 -732.4C60.9 -676.4 121.8 -620.3 196.6 -605.2C271.4 -590.1 360.1 -615.8 430.5 -592.5C500.8 -569.2 552.8 -496.9 585.2 -425.2C617.5 -353.5 630.2 -282.4 651.5 -211.7C672.7 -140.9 702.6 -70.5 732.4 0L0 0Z" fill="#0e3380"></path></g></svg>